<mxfile host="app.diagrams.net" modified="2022-12-06T15:04:18.777Z" agent="5.0 (Macintosh; Intel Mac OS X 10_15_7) AppleWebKit/537.36 (KHTML, like Gecko) Chrome/108.0.0.0 Safari/537.36" etag="rnSpr94n5IFOILr3sqZJ" version="20.6.0" type="github">
  <diagram id="6a731a19-8d31-9384-78a2-239565b7b9f0" name="Page-1">
    <mxGraphModel dx="1944" dy="589" grid="1" gridSize="10" guides="1" tooltips="1" connect="1" arrows="1" fold="1" page="1" pageScale="1" pageWidth="1169" pageHeight="827" background="none" math="0" shadow="0">
      <root>
        <mxCell id="0" />
        <mxCell id="1" parent="0" />
        <mxCell id="z7RBfypj2QP7J7C5ud3E-55" value="&lt;font style=&quot;font-size: 20px;&quot;&gt;Start&lt;/font&gt;" style="ellipse;whiteSpace=wrap;html=1;fillColor=#f8cecc;strokeColor=#b85450;" parent="1" vertex="1">
          <mxGeometry x="320" y="90" width="120" height="80" as="geometry" />
        </mxCell>
        <mxCell id="z7RBfypj2QP7J7C5ud3E-58" value="&lt;font style=&quot;font-size: 20px;&quot;&gt;Login ID/PW&lt;/font&gt;" style="rounded=0;whiteSpace=wrap;html=1;fillColor=#dae8fc;strokeColor=#6c8ebf;" parent="1" vertex="1">
          <mxGeometry x="140" y="370" width="120" height="60" as="geometry" />
        </mxCell>
        <mxCell id="z7RBfypj2QP7J7C5ud3E-59" value="&lt;font style=&quot;font-size: 20px;&quot;&gt;Find ID/PW&lt;/font&gt;" style="rounded=0;whiteSpace=wrap;html=1;fillColor=#dae8fc;strokeColor=#6c8ebf;" parent="1" vertex="1">
          <mxGeometry x="320" y="370" width="120" height="60" as="geometry" />
        </mxCell>
        <mxCell id="z7RBfypj2QP7J7C5ud3E-101" value="" style="edgeStyle=orthogonalEdgeStyle;rounded=0;orthogonalLoop=1;jettySize=auto;html=1;fontSize=20;" parent="1" source="z7RBfypj2QP7J7C5ud3E-60" target="z7RBfypj2QP7J7C5ud3E-100" edge="1">
          <mxGeometry relative="1" as="geometry" />
        </mxCell>
        <mxCell id="z7RBfypj2QP7J7C5ud3E-60" value="&lt;span style=&quot;color: rgb(0, 0, 0); font-family: Helvetica; font-style: normal; font-variant-ligatures: normal; font-variant-caps: normal; font-weight: 400; letter-spacing: normal; orphans: 2; text-align: center; text-indent: 0px; text-transform: none; widows: 2; word-spacing: 0px; -webkit-text-stroke-width: 0px; background-color: rgb(248, 249, 250); text-decoration-thickness: initial; text-decoration-style: initial; text-decoration-color: initial; float: none; display: inline !important;&quot;&gt;&lt;font style=&quot;font-size: 20px;&quot;&gt;Join&lt;/font&gt;&lt;/span&gt;" style="rounded=0;whiteSpace=wrap;html=1;fillColor=#dae8fc;strokeColor=#6c8ebf;" parent="1" vertex="1">
          <mxGeometry x="580" y="370" width="120" height="60" as="geometry" />
        </mxCell>
        <mxCell id="z7RBfypj2QP7J7C5ud3E-61" value="" style="endArrow=classic;html=1;rounded=0;fontSize=20;entryX=0.5;entryY=0;entryDx=0;entryDy=0;exitX=0.5;exitY=1;exitDx=0;exitDy=0;" parent="1" source="z7RBfypj2QP7J7C5ud3E-69" target="z7RBfypj2QP7J7C5ud3E-59" edge="1">
          <mxGeometry width="50" height="50" relative="1" as="geometry">
            <mxPoint x="320" y="230" as="sourcePoint" />
            <mxPoint x="450" y="330" as="targetPoint" />
          </mxGeometry>
        </mxCell>
        <mxCell id="z7RBfypj2QP7J7C5ud3E-62" value="" style="endArrow=classic;html=1;rounded=0;fontSize=20;entryX=0.5;entryY=0;entryDx=0;entryDy=0;" parent="1" target="z7RBfypj2QP7J7C5ud3E-60" edge="1">
          <mxGeometry width="50" height="50" relative="1" as="geometry">
            <mxPoint x="380" y="320" as="sourcePoint" />
            <mxPoint x="700" y="510" as="targetPoint" />
            <Array as="points">
              <mxPoint x="640" y="320" />
            </Array>
          </mxGeometry>
        </mxCell>
        <mxCell id="z7RBfypj2QP7J7C5ud3E-63" value="" style="endArrow=classic;html=1;rounded=0;fontSize=20;entryX=0.5;entryY=0;entryDx=0;entryDy=0;" parent="1" target="z7RBfypj2QP7J7C5ud3E-58" edge="1">
          <mxGeometry width="50" height="50" relative="1" as="geometry">
            <mxPoint x="380" y="320" as="sourcePoint" />
            <mxPoint x="620" y="510" as="targetPoint" />
            <Array as="points">
              <mxPoint x="200" y="320" />
            </Array>
          </mxGeometry>
        </mxCell>
        <mxCell id="z7RBfypj2QP7J7C5ud3E-64" value="&lt;font style=&quot;font-size: 17px;&quot;&gt;Vaild&lt;br&gt;ID/PW&lt;/font&gt;" style="rhombus;whiteSpace=wrap;html=1;fontSize=20;fillColor=#fff2cc;strokeColor=#d6b656;" parent="1" vertex="1">
          <mxGeometry x="150" y="496" width="100" height="96" as="geometry" />
        </mxCell>
        <mxCell id="z7RBfypj2QP7J7C5ud3E-65" value="" style="endArrow=classic;html=1;rounded=0;fontSize=20;exitX=0.5;exitY=1;exitDx=0;exitDy=0;entryX=0.5;entryY=0;entryDx=0;entryDy=0;" parent="1" source="z7RBfypj2QP7J7C5ud3E-58" target="z7RBfypj2QP7J7C5ud3E-64" edge="1">
          <mxGeometry width="50" height="50" relative="1" as="geometry">
            <mxPoint x="430" y="430" as="sourcePoint" />
            <mxPoint x="480" y="380" as="targetPoint" />
          </mxGeometry>
        </mxCell>
        <mxCell id="z7RBfypj2QP7J7C5ud3E-66" value="" style="endArrow=classic;html=1;rounded=0;fontSize=20;exitX=0.5;exitY=1;exitDx=0;exitDy=0;entryX=0.5;entryY=0;entryDx=0;entryDy=0;" parent="1" source="z7RBfypj2QP7J7C5ud3E-64" target="z7RBfypj2QP7J7C5ud3E-68" edge="1">
          <mxGeometry relative="1" as="geometry">
            <mxPoint x="410" y="710" as="sourcePoint" />
            <mxPoint x="200" y="700" as="targetPoint" />
          </mxGeometry>
        </mxCell>
        <mxCell id="z7RBfypj2QP7J7C5ud3E-67" value="Yes" style="edgeLabel;resizable=0;html=1;align=center;verticalAlign=middle;fontSize=20;" parent="z7RBfypj2QP7J7C5ud3E-66" connectable="0" vertex="1">
          <mxGeometry relative="1" as="geometry" />
        </mxCell>
        <mxCell id="z7RBfypj2QP7J7C5ud3E-68" value="Main Program" style="ellipse;whiteSpace=wrap;html=1;fontSize=20;fillColor=#f8cecc;strokeColor=#b85450;" parent="1" vertex="1">
          <mxGeometry x="140" y="680" width="120" height="80" as="geometry" />
        </mxCell>
        <mxCell id="z7RBfypj2QP7J7C5ud3E-69" value="Login Form" style="rounded=0;whiteSpace=wrap;html=1;fontSize=20;fillColor=#dae8fc;strokeColor=#6c8ebf;" parent="1" vertex="1">
          <mxGeometry x="320" y="220" width="120" height="60" as="geometry" />
        </mxCell>
        <mxCell id="z7RBfypj2QP7J7C5ud3E-70" value="" style="endArrow=classic;html=1;rounded=0;fontSize=20;exitX=0.5;exitY=1;exitDx=0;exitDy=0;entryX=0.5;entryY=0;entryDx=0;entryDy=0;" parent="1" source="z7RBfypj2QP7J7C5ud3E-55" target="z7RBfypj2QP7J7C5ud3E-69" edge="1">
          <mxGeometry width="50" height="50" relative="1" as="geometry">
            <mxPoint x="470" y="160" as="sourcePoint" />
            <mxPoint x="520" y="110" as="targetPoint" />
          </mxGeometry>
        </mxCell>
        <mxCell id="z7RBfypj2QP7J7C5ud3E-71" value="Login error msg" style="rounded=0;whiteSpace=wrap;html=1;fontSize=20;fillColor=#dae8fc;strokeColor=#6c8ebf;" parent="1" vertex="1">
          <mxGeometry x="30" y="220" width="120" height="60" as="geometry" />
        </mxCell>
        <mxCell id="z7RBfypj2QP7J7C5ud3E-72" value="" style="endArrow=classic;html=1;rounded=0;fontSize=20;exitX=0;exitY=0.5;exitDx=0;exitDy=0;entryX=0.5;entryY=1;entryDx=0;entryDy=0;" parent="1" source="z7RBfypj2QP7J7C5ud3E-64" target="z7RBfypj2QP7J7C5ud3E-71" edge="1">
          <mxGeometry width="50" height="50" relative="1" as="geometry">
            <mxPoint x="370" y="490" as="sourcePoint" />
            <mxPoint x="420" y="440" as="targetPoint" />
            <Array as="points">
              <mxPoint x="90" y="544" />
            </Array>
          </mxGeometry>
        </mxCell>
        <mxCell id="z7RBfypj2QP7J7C5ud3E-99" value="No" style="edgeLabel;html=1;align=center;verticalAlign=middle;resizable=0;points=[];fontSize=20;" parent="z7RBfypj2QP7J7C5ud3E-72" vertex="1" connectable="0">
          <mxGeometry x="-0.8395" y="-2" relative="1" as="geometry">
            <mxPoint as="offset" />
          </mxGeometry>
        </mxCell>
        <mxCell id="z7RBfypj2QP7J7C5ud3E-73" value="" style="endArrow=classic;html=1;rounded=0;fontSize=20;exitX=1;exitY=0.5;exitDx=0;exitDy=0;entryX=0;entryY=0.5;entryDx=0;entryDy=0;" parent="1" source="z7RBfypj2QP7J7C5ud3E-71" target="z7RBfypj2QP7J7C5ud3E-69" edge="1">
          <mxGeometry width="50" height="50" relative="1" as="geometry">
            <mxPoint x="370" y="490" as="sourcePoint" />
            <mxPoint x="420" y="440" as="targetPoint" />
          </mxGeometry>
        </mxCell>
        <mxCell id="z7RBfypj2QP7J7C5ud3E-80" value="" style="edgeStyle=orthogonalEdgeStyle;rounded=0;orthogonalLoop=1;jettySize=auto;html=1;fontSize=20;" parent="1" source="z7RBfypj2QP7J7C5ud3E-75" target="z7RBfypj2QP7J7C5ud3E-79" edge="1">
          <mxGeometry relative="1" as="geometry" />
        </mxCell>
        <mxCell id="z7RBfypj2QP7J7C5ud3E-85" value="" style="edgeStyle=orthogonalEdgeStyle;rounded=0;orthogonalLoop=1;jettySize=auto;html=1;fontSize=18;" parent="1" source="z7RBfypj2QP7J7C5ud3E-75" target="z7RBfypj2QP7J7C5ud3E-79" edge="1">
          <mxGeometry relative="1" as="geometry" />
        </mxCell>
        <mxCell id="z7RBfypj2QP7J7C5ud3E-75" value="Find ID/PW&lt;br&gt;Form" style="ellipse;whiteSpace=wrap;html=1;fontSize=20;fillColor=#dae8fc;strokeColor=#6c8ebf;" parent="1" vertex="1">
          <mxGeometry x="320" y="504" width="120" height="80" as="geometry" />
        </mxCell>
        <mxCell id="z7RBfypj2QP7J7C5ud3E-76" value="" style="endArrow=classic;html=1;rounded=0;fontSize=20;exitX=0.5;exitY=1;exitDx=0;exitDy=0;entryX=0.5;entryY=0;entryDx=0;entryDy=0;" parent="1" source="z7RBfypj2QP7J7C5ud3E-59" target="z7RBfypj2QP7J7C5ud3E-75" edge="1">
          <mxGeometry width="50" height="50" relative="1" as="geometry">
            <mxPoint x="420" y="504" as="sourcePoint" />
            <mxPoint x="470" y="454" as="targetPoint" />
          </mxGeometry>
        </mxCell>
        <mxCell id="z7RBfypj2QP7J7C5ud3E-92" value="" style="edgeStyle=orthogonalEdgeStyle;rounded=0;orthogonalLoop=1;jettySize=auto;html=1;fontSize=18;entryX=0.5;entryY=1;entryDx=0;entryDy=0;" parent="1" source="z7RBfypj2QP7J7C5ud3E-79" target="z7RBfypj2QP7J7C5ud3E-91" edge="1">
          <mxGeometry relative="1" as="geometry" />
        </mxCell>
        <mxCell id="z7RBfypj2QP7J7C5ud3E-97" value="&lt;font style=&quot;font-size: 20px;&quot;&gt;No&lt;/font&gt;" style="edgeLabel;html=1;align=center;verticalAlign=middle;resizable=0;points=[];fontSize=13;" parent="z7RBfypj2QP7J7C5ud3E-92" vertex="1" connectable="0">
          <mxGeometry x="-0.7672" y="1" relative="1" as="geometry">
            <mxPoint x="74" as="offset" />
          </mxGeometry>
        </mxCell>
        <mxCell id="z7RBfypj2QP7J7C5ud3E-79" value="&lt;font style=&quot;font-size: 15px;&quot;&gt;Input&lt;br&gt;Name&lt;br&gt;E-mail&lt;/font&gt;" style="rhombus;whiteSpace=wrap;html=1;fontSize=20;fillColor=#fff2cc;strokeColor=#d6b656;" parent="1" vertex="1">
          <mxGeometry x="250" y="790" width="100" height="96" as="geometry" />
        </mxCell>
        <mxCell id="z7RBfypj2QP7J7C5ud3E-87" value="" style="edgeStyle=orthogonalEdgeStyle;rounded=0;orthogonalLoop=1;jettySize=auto;html=1;fontSize=18;exitX=0.5;exitY=1;exitDx=0;exitDy=0;" parent="1" source="z7RBfypj2QP7J7C5ud3E-75" target="z7RBfypj2QP7J7C5ud3E-88" edge="1">
          <mxGeometry relative="1" as="geometry">
            <mxPoint x="530" y="592" as="sourcePoint" />
          </mxGeometry>
        </mxCell>
        <mxCell id="z7RBfypj2QP7J7C5ud3E-94" value="" style="edgeStyle=orthogonalEdgeStyle;rounded=0;orthogonalLoop=1;jettySize=auto;html=1;fontSize=18;entryX=0.5;entryY=1;entryDx=0;entryDy=0;" parent="1" source="z7RBfypj2QP7J7C5ud3E-88" target="z7RBfypj2QP7J7C5ud3E-91" edge="1">
          <mxGeometry relative="1" as="geometry">
            <mxPoint x="340" y="956" as="targetPoint" />
          </mxGeometry>
        </mxCell>
        <mxCell id="z7RBfypj2QP7J7C5ud3E-98" value="&lt;font style=&quot;font-size: 20px;&quot;&gt;No&lt;/font&gt;" style="edgeLabel;html=1;align=center;verticalAlign=middle;resizable=0;points=[];fontSize=13;" parent="z7RBfypj2QP7J7C5ud3E-94" vertex="1" connectable="0">
          <mxGeometry x="-0.6607" y="-1" relative="1" as="geometry">
            <mxPoint x="102" as="offset" />
          </mxGeometry>
        </mxCell>
        <mxCell id="z7RBfypj2QP7J7C5ud3E-88" value="&lt;font style=&quot;font-size: 13px;&quot;&gt;Input&lt;br&gt;ID&lt;br&gt;Name&lt;br&gt;E-mail&lt;br&gt;&lt;/font&gt;" style="rhombus;whiteSpace=wrap;html=1;fontSize=20;fillColor=#fff2cc;strokeColor=#d6b656;" parent="1" vertex="1">
          <mxGeometry x="330" y="908" width="100" height="96" as="geometry" />
        </mxCell>
        <mxCell id="z7RBfypj2QP7J7C5ud3E-91" value="Find error msg" style="whiteSpace=wrap;html=1;fontSize=20;fillColor=#dae8fc;strokeColor=#6c8ebf;" parent="1" vertex="1">
          <mxGeometry x="-100" y="140" width="120" height="60" as="geometry" />
        </mxCell>
        <mxCell id="z7RBfypj2QP7J7C5ud3E-95" value="" style="endArrow=classic;html=1;rounded=0;fontSize=18;exitX=1;exitY=0.5;exitDx=0;exitDy=0;entryX=0;entryY=0.5;entryDx=0;entryDy=0;" parent="1" source="z7RBfypj2QP7J7C5ud3E-91" target="z7RBfypj2QP7J7C5ud3E-69" edge="1">
          <mxGeometry width="50" height="50" relative="1" as="geometry">
            <mxPoint x="100" y="190" as="sourcePoint" />
            <mxPoint x="150" y="140" as="targetPoint" />
            <Array as="points">
              <mxPoint x="210" y="170" />
              <mxPoint x="210" y="250" />
            </Array>
          </mxGeometry>
        </mxCell>
        <mxCell id="z7RBfypj2QP7J7C5ud3E-103" value="" style="edgeStyle=orthogonalEdgeStyle;rounded=0;orthogonalLoop=1;jettySize=auto;html=1;fontSize=20;entryX=0.5;entryY=0;entryDx=0;entryDy=0;" parent="1" source="z7RBfypj2QP7J7C5ud3E-100" target="z7RBfypj2QP7J7C5ud3E-119" edge="1">
          <mxGeometry relative="1" as="geometry">
            <mxPoint x="640" y="650" as="targetPoint" />
          </mxGeometry>
        </mxCell>
        <mxCell id="z7RBfypj2QP7J7C5ud3E-100" value="&lt;font style=&quot;font-size: 20px;&quot;&gt;Join Form&lt;/font&gt;" style="ellipse;whiteSpace=wrap;html=1;rounded=0;fillColor=#f8cecc;strokeColor=#b85450;" parent="1" vertex="1">
          <mxGeometry x="580" y="510" width="120" height="60" as="geometry" />
        </mxCell>
        <mxCell id="z7RBfypj2QP7J7C5ud3E-105" value="" style="edgeStyle=orthogonalEdgeStyle;rounded=0;orthogonalLoop=1;jettySize=auto;html=1;fontSize=17;exitX=0.5;exitY=1;exitDx=0;exitDy=0;" parent="1" source="z7RBfypj2QP7J7C5ud3E-119" target="z7RBfypj2QP7J7C5ud3E-104" edge="1">
          <mxGeometry relative="1" as="geometry">
            <mxPoint x="640" y="710" as="sourcePoint" />
          </mxGeometry>
        </mxCell>
        <mxCell id="z7RBfypj2QP7J7C5ud3E-107" value="" style="edgeStyle=orthogonalEdgeStyle;rounded=0;orthogonalLoop=1;jettySize=auto;html=1;fontSize=17;exitX=0;exitY=0.5;exitDx=0;exitDy=0;" parent="1" source="z7RBfypj2QP7J7C5ud3E-119" target="z7RBfypj2QP7J7C5ud3E-106" edge="1">
          <mxGeometry relative="1" as="geometry">
            <mxPoint x="590" y="680" as="sourcePoint" />
            <Array as="points">
              <mxPoint x="520" y="680" />
            </Array>
          </mxGeometry>
        </mxCell>
        <mxCell id="z7RBfypj2QP7J7C5ud3E-110" value="No" style="edgeStyle=orthogonalEdgeStyle;rounded=0;orthogonalLoop=1;jettySize=auto;html=1;fontSize=20;" parent="1" source="z7RBfypj2QP7J7C5ud3E-104" target="z7RBfypj2QP7J7C5ud3E-109" edge="1">
          <mxGeometry relative="1" as="geometry" />
        </mxCell>
        <mxCell id="z7RBfypj2QP7J7C5ud3E-104" value="&lt;font style=&quot;font-size: 20px;&quot;&gt;Check&lt;br&gt;Invalid&lt;br&gt;&lt;/font&gt;" style="rhombus;whiteSpace=wrap;html=1;rounded=0;fillColor=#fff2cc;strokeColor=#d6b656;" parent="1" vertex="1">
          <mxGeometry x="590" y="780" width="100" height="90" as="geometry" />
        </mxCell>
        <mxCell id="z7RBfypj2QP7J7C5ud3E-106" value="&lt;font style=&quot;font-size: 20px;&quot;&gt;Cancel&lt;/font&gt;" style="whiteSpace=wrap;html=1;rounded=0;fillColor=#dae8fc;strokeColor=#6c8ebf;" parent="1" vertex="1">
          <mxGeometry x="460" y="450" width="120" height="60" as="geometry" />
        </mxCell>
        <mxCell id="z7RBfypj2QP7J7C5ud3E-108" value="" style="endArrow=classic;html=1;rounded=0;fontSize=20;exitX=0.5;exitY=0;exitDx=0;exitDy=0;entryX=1;entryY=0.5;entryDx=0;entryDy=0;" parent="1" source="z7RBfypj2QP7J7C5ud3E-106" target="z7RBfypj2QP7J7C5ud3E-69" edge="1">
          <mxGeometry width="50" height="50" relative="1" as="geometry">
            <mxPoint x="460" y="540" as="sourcePoint" />
            <mxPoint x="510" y="490" as="targetPoint" />
            <Array as="points">
              <mxPoint x="520" y="250" />
            </Array>
          </mxGeometry>
        </mxCell>
        <mxCell id="z7RBfypj2QP7J7C5ud3E-109" value="&lt;font style=&quot;font-size: 20px;&quot;&gt;Invalid msg&lt;/font&gt;" style="whiteSpace=wrap;html=1;rounded=0;fillColor=#dae8fc;strokeColor=#6c8ebf;" parent="1" vertex="1">
          <mxGeometry x="760" y="795" width="120" height="60" as="geometry" />
        </mxCell>
        <mxCell id="z7RBfypj2QP7J7C5ud3E-111" value="" style="endArrow=classic;html=1;rounded=0;fontSize=20;exitX=0.5;exitY=0;exitDx=0;exitDy=0;entryX=1;entryY=0.5;entryDx=0;entryDy=0;" parent="1" source="z7RBfypj2QP7J7C5ud3E-109" target="z7RBfypj2QP7J7C5ud3E-60" edge="1">
          <mxGeometry width="50" height="50" relative="1" as="geometry">
            <mxPoint x="500" y="580" as="sourcePoint" />
            <mxPoint x="790" y="540" as="targetPoint" />
            <Array as="points">
              <mxPoint x="820" y="400" />
            </Array>
          </mxGeometry>
        </mxCell>
        <mxCell id="z7RBfypj2QP7J7C5ud3E-114" value="Join success&lt;br&gt;msg" style="rounded=0;whiteSpace=wrap;html=1;fontSize=20;fillColor=#dae8fc;strokeColor=#6c8ebf;" parent="1" vertex="1">
          <mxGeometry x="840" y="926" width="120" height="60" as="geometry" />
        </mxCell>
        <mxCell id="z7RBfypj2QP7J7C5ud3E-116" value="" style="endArrow=classic;html=1;rounded=0;fontSize=20;exitX=0.5;exitY=1;exitDx=0;exitDy=0;entryX=0;entryY=0.5;entryDx=0;entryDy=0;" parent="1" source="z7RBfypj2QP7J7C5ud3E-104" target="z7RBfypj2QP7J7C5ud3E-114" edge="1">
          <mxGeometry relative="1" as="geometry">
            <mxPoint x="610" y="940" as="sourcePoint" />
            <mxPoint x="710" y="940" as="targetPoint" />
            <Array as="points">
              <mxPoint x="640" y="956" />
            </Array>
          </mxGeometry>
        </mxCell>
        <mxCell id="z7RBfypj2QP7J7C5ud3E-117" value="Yes" style="edgeLabel;resizable=0;html=1;align=center;verticalAlign=middle;fontSize=20;" parent="z7RBfypj2QP7J7C5ud3E-116" connectable="0" vertex="1">
          <mxGeometry relative="1" as="geometry" />
        </mxCell>
        <mxCell id="z7RBfypj2QP7J7C5ud3E-118" value="" style="endArrow=classic;html=1;rounded=0;fontSize=20;exitX=0.5;exitY=0;exitDx=0;exitDy=0;entryX=1;entryY=0.5;entryDx=0;entryDy=0;" parent="1" source="z7RBfypj2QP7J7C5ud3E-114" target="z7RBfypj2QP7J7C5ud3E-69" edge="1">
          <mxGeometry width="50" height="50" relative="1" as="geometry">
            <mxPoint x="550" y="550" as="sourcePoint" />
            <mxPoint x="600" y="500" as="targetPoint" />
            <Array as="points">
              <mxPoint x="900" y="250" />
            </Array>
          </mxGeometry>
        </mxCell>
        <mxCell id="z7RBfypj2QP7J7C5ud3E-119" value="&lt;span style=&quot;font-size: 17px;&quot;&gt;Input&lt;/span&gt;&lt;br style=&quot;font-size: 17px;&quot;&gt;&lt;span style=&quot;font-size: 17px;&quot;&gt;user infomation&lt;/span&gt;" style="rounded=0;whiteSpace=wrap;html=1;fontSize=20;fillColor=#dae8fc;strokeColor=#6c8ebf;" parent="1" vertex="1">
          <mxGeometry x="580" y="650" width="120" height="60" as="geometry" />
        </mxCell>
      </root>
    </mxGraphModel>
  </diagram>
</mxfile>
